<?xml version="1.0" encoding="iso-8859-1"?>
<!-- Uploaded to: SVG Repo, www.svgrepo.com, Generator: SVG Repo Mixer Tools -->
<svg height="800px" width="800px" version="1.1" id="Layer_1" xmlns="http://www.w3.org/2000/svg" xmlns:xlink="http://www.w3.org/1999/xlink" 
	 viewBox="0 0 512 512" xml:space="preserve">
<path style="fill:#FFDB6F;" d="M503.999,108.561L280,234.72c-14.606,8.21-32.435,8.21-47.04,0L8,108.561
	c-4.97-2.869-8.023-8.181-8-13.92l0,0C0,82.137,10.136,72,22.64,72h466.72C501.863,72,512,82.136,512,94.64l0,0l0,0
	C512.022,100.379,508.97,105.691,503.999,108.561z"/>
<path style="fill:#FFCB5B;" d="M503.999,108.561L280,234.72c-14.606,8.21-32.435,8.21-47.04,0L8,108.561
	c-4.97-2.869-8.023-8.181-8-13.92v322.72C0,429.863,10.136,440,22.64,440l0,0h466.72c12.503,0,22.64-10.136,22.64-22.64l0,0V96.001
	c0,0,0-0.48,0-0.8C511.826,100.739,508.8,105.792,503.999,108.561z"/>
<path style="fill:#F7B84E;" d="M511.999,95.201c-0.173,5.538-3.2,10.592-8,13.36L280,234.72c-14.606,8.21-32.435,8.21-47.04,0
	l-11.52-6.48l0,0L8,108.561c-1.196-0.682-2.298-1.516-3.279-2.48c-0.817-0.825-1.541-1.737-2.16-2.72v-0.4
	c-1.466-2.416-2.266-5.175-2.32-8H0v1.04v16c-0.011,5.528,2.832,10.67,7.52,13.6l205.44,128c0.669,2.875-0.176,5.891-2.24,8
	c-3.5,3.372-3.602,8.944-0.229,12.443c1.152,1.195,2.618,2.04,4.229,2.437c4.727,1.13,7.642,5.879,6.512,10.605
	c-0.074,0.31-0.165,0.615-0.272,0.914c-1.462,4.635,1.109,9.578,5.744,11.04c1.724,0.544,3.573,0.544,5.295,0
	c4.672-1.339,9.545,1.364,10.884,6.035c0.027,0.094,0.052,0.189,0.076,0.285c1.202,4.709,5.994,7.552,10.703,6.35
	c0.883-0.225,1.725-0.586,2.497-1.071v48.8c0,26.819-21.741,48.56-48.56,48.56c-0.053,0-0.106,0-0.161,0H72.001
	c-17.674,0-32,14.327-32,32H489.36c12.503,0,22.64-10.136,22.64-22.64l0,0V96.001C511.999,96.001,511.999,95.521,511.999,95.201
	L511.999,95.201z"/>
<path style="fill:#F19920;" d="M279.52,234.8c-14.606,8.21-32.435,8.21-47.04,0l-224-125.84c0.827,0.782,1.71,1.504,2.64,2.16
	l219.36,136c15.507,9.629,35.133,9.629,50.639,0l219.36-136c0.93-0.656,1.812-1.378,2.64-2.16L279.52,234.8z"/>
<g>
	<path style="fill:#FFE278;" d="M211.92,177.041L148.88,142c-7.733-4.276-10.535-14.011-6.259-21.744
		c2.862-5.176,8.346-8.351,14.259-8.256H160c4.418,0,8-3.582,8-8c0-4.418-3.582-8-8-8H64.001c-2.869-0.011-5.525,1.515-6.96,4
		c-2.143,3.864-0.749,8.733,3.114,10.877c0.002,0.001,0.004,0.002,0.006,0.003l144,80c3.543,2.639,8.556,1.905,11.194-1.639
		c2.639-3.543,1.905-8.556-1.639-11.194C213.162,177.635,212.559,177.297,211.92,177.041z"/>
	<path style="fill:#FFE278;" d="M192,96.001h48c4.418,0,8,3.582,8,8l0,0c0,4.418-3.582,8-8,8h-48c-4.418,0-8-3.582-8-8l0,0
		C184,99.582,187.582,96.001,192,96.001z"/>
</g>
<path style="fill:#B06328;" d="M263.2,179.041L263.2,179.041c4.013-3.859,10.394-3.734,14.252,0.279
	c1.254,1.304,2.134,2.921,2.547,4.682l0,0c1.385,5.392,6.878,8.641,12.271,7.256c0.07-0.018,0.14-0.037,0.21-0.056l0,0
	c5.349-1.544,10.936,1.54,12.48,6.89c0.527,1.826,0.527,3.765,0,5.591l0,0c-1.431,5.342,1.711,10.84,7.04,12.32l0,0
	c5.393,1.38,8.646,6.872,7.265,12.264c-0.456,1.782-1.392,3.407-2.706,4.695l0,0c-3.998,3.873-4.1,10.255-0.226,14.253
	c0.074,0.077,0.15,0.152,0.226,0.226l0,0c3.799,4.069,3.58,10.448-0.489,14.247c-1.157,1.08-2.551,1.872-4.071,2.313l0,0
	c-5.392,1.385-8.641,6.878-7.256,12.271c0.018,0.07,0.037,0.14,0.056,0.21l0,0c1.544,5.349-1.54,10.936-6.89,12.48
	c-1.826,0.527-3.765,0.527-5.591,0l0,0c-5.342-1.431-10.84,1.711-12.32,7.04l0,0c-1.38,5.393-6.872,8.646-12.264,7.265
	c-1.782-0.456-3.407-1.392-4.695-2.706l0,0c-3.873-3.998-10.255-4.1-14.253-0.226c-0.077,0.074-0.152,0.15-0.226,0.226l0,0
	c-4.069,3.799-10.448,3.58-14.247-0.489c-1.08-1.157-1.872-2.551-2.313-4.071l0,0c-1.385-5.392-6.878-8.641-12.271-7.256
	c-0.07,0.018-0.14,0.037-0.21,0.056l0,0c-5.349,1.544-10.936-1.541-12.48-6.89c-0.527-1.826-0.527-3.765,0-5.591l0,0
	c1.431-5.342-1.711-10.84-7.04-12.32l0,0c-5.393-1.38-8.646-6.872-7.265-12.264c0.456-1.782,1.392-3.407,2.706-4.695l0,0
	c3.998-3.873,4.1-10.255,0.226-14.253c-0.074-0.076-0.15-0.152-0.226-0.226l0,0c-3.799-4.069-3.58-10.448,0.489-14.247
	c1.157-1.08,2.551-1.872,4.071-2.313l0,0c5.392-1.385,8.641-6.878,7.256-12.271c-0.018-0.07-0.037-0.14-0.056-0.21l0,0
	c-1.544-5.349,1.541-10.936,6.89-12.48c1.826-0.527,3.765-0.527,5.591,0l0,0c5.342,1.431,10.84-1.711,12.32-7.04l0,0
	c1.38-5.393,6.872-8.646,12.264-7.265c1.782,0.456,3.407,1.392,4.695,2.706l0,0C253.004,183.258,259.377,183.08,263.2,179.041z"/>
<circle style="fill:#7F4122;" cx="256.004" cy="239.999" r="23.999"/>
<path style="fill:#C97629;" d="M288,232.001c4.418,0,8,3.582,8,8c0,22.091-17.908,40-40,40c-4.418,0-8-3.582-8-8s3.582-8,8-8
	c13.255,0,24-10.745,24-24C280,235.582,283.582,232.001,288,232.001z"/>
<path style="fill:#A35425;" d="M224,248.001c-4.418,0-8-3.582-8-8c0-22.091,17.908-40,40-40c4.418,0,8,3.582,8,8
	c0,4.418-3.582,8-8,8c-13.255,0-24,10.745-24,24C232,244.419,228.418,248.001,224,248.001z"/>
</svg>